<svg id="Layer_1" data-name="Layer 1" xmlns="http://www.w3.org/2000/svg" viewBox="0 0 418.06 116.65"><defs><style>.cls-1,.cls-4{fill:#00a0af}.cls-1,.cls-3{fill-rule:evenodd}.cls-2,.cls-3{fill:none;stroke:#f58025;stroke-width:.63px}.cls-4{stroke:#00a0af;stroke-linecap:round;stroke-linejoin:round;stroke-width:1.5px}</style></defs><title>Citizens_Bank_of_Las_Cruces_logo</title><path class="cls-1" d="M115.64 63.33c-2.77 0-9 .42-14 .34-2.47 0-6.7-1-7.08-2.87-1-5 8.8-3.87 11.64-3.71 5 .26 9.55.63 14.68.84a58.45 58.45 0 0 0-2.2-15.18C113.54 44.46 107.5 48 101.3 49c-2.73.45-7 .19-7.59-1.69-.61-2.09 1.26-4 2.36-4.72 4.88-3.31 14.35-2.8 21.6-3.37a52.22 52.22 0 0 0-10.46-18.06c-5.43 3.71-9.59 11.45-16 13.5-.85.27-2.27.69-3 .34-2.8-1.3.61-5.41 1.68-6.58 3.84-4.17 9.31-7.11 13-10.29A41.45 41.45 0 0 0 82.92 5.3c-1.49 4.7-2.55 10.31-4.73 14.5-.61 1.2-2.38 3.57-4 3.38s-2.37-3.5-2-5.06C73.22 13.18 77.8 8 79 3.94A40.09 40.09 0 0 0 64.36.06c-.67 4.73.24 9.84 0 13.67-.16 2.48-.62 8.09-4.22 7.76C57.42 15 58.94 7.24 60 .57 55.6-.62 50.57.16 46.31 1.92c1.53 5.55 5 11.88 5.23 18 .05 1.41-.1 2.74-1 3-1.78.58-3.21-2.32-3.89-3.37A54.21 54.21 0 0 1 44 14.57C42.19 11 40.86 7.23 39.22 3.94c-9 3-16.42 7.53-22.1 13.84 3.57 4.84 8.66 9.33 12.83 13.83 1.25 1.36 3.5 3.48 1.34 5.57-7.14-3.26-14.49-7.78-18.55-14.67C8 27.14 5 33.51 3.29 41.23a120.69 120.69 0 0 1 16.2 1.68c2.38.47 6.3 1 6.4 3.21.13 2.72-3.78 2.7-5.39 2.53-6-.62-13.74-2.81-19.4-3.2C-.42 49.32 0 56.34.25 60.12c5-1.64 13.89-2.74 18.56-2.19 3.45.4 7.33.48 5.4 4.22C18.39 66.4 10.33 65.58.93 66.2a43.18 43.18 0 0 0 12.48 29.18 100.21 100.21 0 0 1 8.44-8.94c1.76-1.62 6.86-7.67 10.12-7.26 4.51.59.69 6.24-.68 7.94-2.87 3.56-5.42 5.69-8.61 8.94-.73.76-4.27 3.45-4.21 4.72.05.89 2.08 2.29 2.71 2.87 3.08 2.88 7 4.49 10.45 5.9 2.18-6.76 4.28-13.65 8.61-18.55.68-.78 3.4-4.36 4.89-4.22.9.08 1.64 1.72 1.69 2.7.07 1.82-.89 4.07-1.69 5.9-2.46 5.63-6.14 10.86-8.27 16a23.28 23.28 0 0 0 12.32 3.89A63.47 63.47 0 0 1 51 95.72c1-3.3 1.75-6.78 5.39-4.89 2.69 6.86.68 16.64.5 24.46 8.29 3 21.87 1 27.5-4.73C82 105.41 77.13 99.35 75.66 93a7 7 0 0 1-.17-3.2c1.34-4.65 6-.14 7.43 1.68 4.08 5.11 6.88 10.87 10.29 16 9.53-3.85 15.46-11.3 20.07-20.07-4.78-3-12-5.12-17.38-7.76-2.49-1.21-5-3.24-5.56-6.07 1.16-1.22 3.73-1.37 5.56-1.18 3.56.38 7.44 2.15 10.81 3.54 3.53 1.46 6.84 3.18 10 4.38a46.25 46.25 0 0 0 3.54-17.2 36.87 36.87 0 0 0-4.61.21zm-1-13.16c3.63-.72 3.55 4.72.51 4.72-2.71.01-3.67-4.1-.52-4.72zM25.39 14.74a1.58 1.58 0 0 1 1.18-2.19c1.7-.61 2.55.38 2.53 1.68a1.9 1.9 0 0 1-3.71.51zM11.05 35.83a2 2 0 0 1 3.54-1.52c1.41 3.36-3.22 3.94-3.54 1.52zM6.16 54.89c-2.42-.51-2.16-3.89 0-4.55 4.06-1.19 4.07 5.42 0 4.55zm10.12 32.23c-3.63 1.11-6.34-5.21-1.52-5.91 3.67-.53 4.77 4.91 1.52 5.91zm12.65 17.2a2.37 2.37 0 0 1-.17-4.72c3.46-.73 3.56 4.91.17 4.72zm16.37 7.08c-2.23.72-3.77-2.35-1.52-3.36.23-.3 1.47-.15 2 .16.92 1.09.56 2.87-.48 3.2zm33.57-65.62c.11 1.71 2.4 2.78 1.35 4.56-1.78.21-2.21-1.93-2.87-3-1.59-2.66-4-4.62-6.41-6.58a7.15 7.15 0 0 1-3.2-1.85 1.18 1.18 0 0 1 .67-1.19c4.71 1.44 7.59 4.8 10.46 8.06zm-5.67 16v-2.59h3.25v2.64zm3.25 1v2.63H73.2v-2.6zm-3.25-4.6v-2.6h3.25v2.63zm0-3.62V52h3.25v2.63zm-3.26-.93a4 4 0 0 1-2.39.69c-.27-.33.51-1.65 1.11-2.19.85-.55 2.05.98 1.28 1.53zm.76 2.8c-.84.18-2.41-.05-2.47-.29-.12-.39 1.11-1.31 1.87-1.58 1-.17 1.52 1.71.6 1.9zm-2.07-5a4 4 0 0 1-2.4.69c-.26-.32.52-1.64 1.12-2.18.85-.53 2.05 1 1.28 1.54zm1.16 11.17c.87.57-.1 2.26-.89 1.75s-1.67-1.74-1.54-1.95 1.71-.14 2.43.2zm.32-.69c-.82-.27-2.06-1.27-2-1.5.11-.4 1.63-.57 2.41-.42.98.33.48 2.22-.41 1.92zm.64-2.74c-.87 0-2.32-.67-2.32-.91 0-.41 1.41-1 2.21-1 1.03 0 1.06 1.95.11 1.91zm-1-54c3.34-.2 4.16 4.94 1.18 5.9-3.93 1.24-6.15-5.64-1.17-5.94zM64.3 33.53h2.64v3.25H64.3zm0 4.31h2.64v3.24H64.3zm0 4.3h2.64v3.25H64.3zm.29 6.52c.56-.86 2.26.1 1.75.9s-1.74 1.66-2 1.54-.1-1.72.25-2.44zm-.66-.44c-.28.83-1.26 2.05-1.5 2-.4-.11-.57-1.63-.42-2.42.33-.97 2.21-.48 1.92.42zm-3.25-19h2.64v3.24h-2.64zm0 4.3h2.64v3.25h-2.64zm0 4.31h2.64v3.24h-2.64zm0 4.3h2.64v3.25h-2.64zm.58 5.57c0 .87-.67 2.31-.91 2.31-.42 0-1-1.41-1.05-2.21.06-1.02 2.01-1.03 1.96-.09zm-4.19-18.47h2.64v3.24h-2.64zm0 4.3h2.64v3.25h-2.64zm0 4.31h2.64v3.24h-2.64zm0 4.3h2.64v3.25h-2.64zm1.32 5.62a4 4 0 0 1-.3 2.47c-.39.11-1.3-1.11-1.57-1.87-.21-1 1.67-1.53 1.87-.6zM52.55 5.13c4.74-1.22 4.89 5.85.84 5.9-2.93.03-4.39-5.03-.84-5.9zM49.68 57.3c.87.05 2.32.67 2.32.92 0 .41-1.41 1-2.21 1.05-1.02-.06-1.05-2.01-.11-1.97zm.64-2.84c.82.26 2 1.26 2 1.49-.1.4-1.62.57-2.42.42-.98-.32-.48-2.21.42-1.91zM49.85 60c.85-.18 2.41.05 2.47.29.12.4-1.11 1.31-1.87 1.58-1 .22-1.52-1.66-.6-1.87zm.92 2.79a4 4 0 0 1 2.39-.69c.26.33-.52 1.65-1.11 2.19-.86.58-2.05-.95-1.28-1.49zm0-8.93c-.85-.57.11-2.27.9-1.75s1.67 1.74 1.55 2c-.22.33-1.74.1-2.47-.24zm1.49-2.36c-.67-.78.7-2.16 1.33-1.45s1.15 2.12 1 2.29-1.74-.34-2.35-.83zm3.84-13.67v3.24h-2.65v-3.23zm-2.63-1.06v-3.24h2.63v3.25zm2.63 5.36v3.25h-2.65v-3.24zm-2 7.54c-.47-.91 1.2-1.91 1.64-1.07a4 4 0 0 1 .38 2.46c-.42.22-1.63-.72-2.12-1.38zm-9.75-7.77a22 22 0 0 1 2.88-2.37c1.48-1 4.28-2.65 5.22-1.35C52 39.82 50.16 40 49 40.72a21.67 21.67 0 0 0-5.91 5.57c-.88 1.27-1.15 4.05-3.38 3.37a14.8 14.8 0 0 1 4.57-7.75zM44 61.83v-2.64h3.25v2.64zm3.25 1v2.63H44v-2.65zM44 58.21v-2.63h3.25v2.63zm0-3.62V52h3.25v2.63zm-4.31 3.62v-2.63h3.25v2.63zm3.25 1v2.64h-3.26v-2.66zm-3.25-4.6V52h3.25v2.63zm-12.44 19c-1 2.69-5.44 2.26-6.06-.51a2.81 2.81 0 0 1 2.35-3.54 3.81 3.81 0 0 1 1.52-.17 3.37 3.37 0 0 1 2.18 4.23zm7.08-11.79h-3.26v-2.63h3.25zm0-3.62h-3.26v-2.62h3.25zm4.3 7.23h-3.25v-2.62h3.24zm0-3.61h-3.25v-2.63h3.24zm0-3.62h-3.25v-2.62h3.24zm0-3.62h-3.25V52h3.24zm-1.26-39c4-1.05 4.49 4.72 1.36 5.22-2.95.49-4.96-4.28-1.37-5.21zm2.32 47.22h3.25v2.63h-3.26zm6 12.45a17.57 17.57 0 0 1-6-9.42c.33-.11.46-.41 1-.34 1.85 2.55 3.07 5.39 5.35 7.65.51.5 1.06 1.16 1.46 1.46 1.59 1.18 4.57 1.34 4.55 3.9-2.43.06-4.66-1.83-6.33-3.24zM52.1 65c.72-.49 2.24-.88 2.39-.69S54 66 53.38 66.5c-.84.58-2.05-.95-1.28-1.5zm4 17.93h-2.65v-3.24h2.63zm0-4.3h-2.65v-3.24h2.63zm0-4.3h-2.65v-3.25h2.63zm-.23-6.64c-.57.86-2.26-.11-1.75-.89s1.74-1.67 1.95-1.55c.35.2.12 1.75-.22 2.45zm-2.26-9.43a6.62 6.62 0 1 1 6.61 6.62 6.62 6.62 0 0 1-6.63-6.61zm12.7 8.4c.46.92-1.2 1.92-1.64 1.09s-.6-2.34-.38-2.47 1.54.72 2 1.39zm-5.63 16.28v-3.25h2.64v3.25zM63.32 84v3.25h-2.64V84zm-2.64-5.36v-3.25h2.64v3.25zm0-4.3v-3.26h2.64v3.26zm1.25-5.73a4.08 4.08 0 0 1 .29-2.48c.4-.12 1.31 1.12 1.58 1.87.2 1-1.67 1.53-1.87.61zM56.5 68c.28-.82 1.27-2 1.5-2 .4.1.57 1.62.42 2.41-.33 1.01-2.21.51-1.92-.41zm3.21 19.23h-2.64V84h2.64zm0-4.31h-2.64v-3.23h2.64zm0-4.3h-2.64v-3.23h2.64zm0-4.3h-2.64v-3.24h2.64zm-.43-5.58c0-.86.67-2.31.92-2.31.42 0 1 1.42 1 2.22-.02 1.04-1.97 1.06-1.92.11zm5.58 29.32c-2.42 3.91-7.34-3.3-2.36-3.88a2.51 2.51 0 0 1 2.36 3.9zm2.08-15.14H64.3v-3.23h2.64zm0-4.3H64.3v-3.23h2.64zm0-4.3H64.3v-3.24h2.64zM66 64.12c.29-.29 1.69.32 2.3.84.68.77-.7 2.16-1.32 1.45s-1.15-2.11-.98-2.29zm8.82 48a3.54 3.54 0 0 1-5.57-3.71c2.32-5.57 9.42.4 5.57 3.67zm.67-37.44a21.58 21.58 0 0 1-3.87 2.86c-1.17.67-3.12 2.31-4.39.84.9-2 3.13-2.24 4.55-3.2 3.1-2.11 4.75-4.77 6.75-8.27.16-.27.72-.38.85-.84.69-.19.65.35 1.18.34-.63 3.23-2.78 6-5.07 8.23zm5.26-9.2h-3.24v-2.67h3.24zm0-3.61h-3.24v-2.68h3.24zm0-3.62h-3.24v-2.67h3.24zm0-3.62h-3.24V52h3.24zm8.61 1v2.63h-3.24v-2.68zm0 3.61v2.64h-3.24v-2.69zM87.8 15.92a2.82 2.82 0 0 1 3.2 3.55c-.38 2.25-3.81 3.23-5.39 1.34a3 3 0 0 1 2.19-4.89zm-2.74 49.52h-3.25v-2.63h3.25zm0-3.61h-3.25v-2.64h3.25zm0-3.62h-3.25v-2.63h3.25zm0-3.62h-3.25V52h3.25zm5.79 34.89c.6 2.14-2 4.41-4.73 2.7-3.26-3.56 3.49-7.06 4.73-2.7z"/><path class="cls-2" d="M43.73 52.28h3.24v2.63h-3.24zM43.73 55.9h3.24v2.64h-3.24zM43.73 59.51h3.24v2.64h-3.24zM43.73 63.13h3.24v2.63h-3.24zM39.43 52.28h3.24v2.63h-3.24zM39.43 55.9h3.24v2.64h-3.24zM39.43 59.51h3.24v2.64h-3.24zM39.43 63.13h3.24v2.63h-3.24zM35.12 52.28h3.25v2.63h-3.25zM35.12 55.9h3.25v2.64h-3.25zM35.12 59.51h3.25v2.64h-3.25zM35.12 63.13h3.25v2.63h-3.25zM30.82 55.9h3.25v2.64h-3.25zM30.82 59.51h3.25v2.64h-3.25zM72.93 63.13h3.25v2.63h-3.25zM72.93 59.51h3.25v2.64h-3.25zM72.93 55.9h3.25v2.64h-3.25zM72.93 52.28h3.25v2.63h-3.25zM77.23 63.13h3.24v2.63h-3.24zM77.23 59.51h3.24v2.64h-3.24zM77.23 55.9h3.24v2.64h-3.24zM77.23 52.28h3.24v2.63h-3.24zM81.54 63.13h3.24v2.63h-3.24zM81.54 59.51h3.24v2.64h-3.24zM81.54 55.9h3.24v2.64h-3.24zM81.54 52.28h3.24v2.63h-3.24zM85.84 59.51h3.24v2.64h-3.24zM85.84 55.9h3.24v2.64h-3.24zM53.19 71.4h2.63v3.25h-2.63zM56.8 71.4h2.63v3.25H56.8zM60.42 71.4h2.63v3.25h-2.63zM64.04 71.4h2.63v3.25h-2.63zM53.19 75.7h2.63v3.24h-2.63zM56.8 75.7h2.63v3.24H56.8zM60.42 75.7h2.63v3.24h-2.63zM64.04 75.7h2.63v3.24h-2.63zM53.19 80.01h2.63v3.24h-2.63zM56.8 80.01h2.63v3.24H56.8zM60.42 80.01h2.63v3.24h-2.63zM64.04 80.01h2.63v3.24h-2.63zM56.8 84.3h2.63v3.25H56.8zM60.42 84.3h2.63v3.25h-2.63zM64.04 42.47h2.63v3.25h-2.63zM60.42 42.47h2.63v3.25h-2.63zM56.8 42.47h2.63v3.25H56.8zM53.19 42.47h2.63v3.25h-2.63zM64.04 38.17h2.63v3.24h-2.63zM60.42 38.17h2.63v3.24h-2.63zM56.8 38.17h2.63v3.24H56.8zM53.19 38.17h2.63v3.24h-2.63zM64.04 33.87h2.63v3.25h-2.63zM60.42 33.87h2.63v3.25h-2.63zM56.8 33.87h2.63v3.25H56.8zM53.19 33.87h2.63v3.25h-2.63zM60.42 29.56h2.63v3.24h-2.63zM56.8 29.56h2.63v3.24H56.8z"/><path class="cls-3" d="M50.49 54.19c.72.35 2.24.57 2.44.21s-.82-1.49-1.54-2-1.76 1.22-.9 1.79zM69.53 62.93c-.73-.35-2.24-.57-2.44-.21s.81 1.48 1.54 2 1.75-1.23.9-1.79zM50.19 62.2c.76-.27 2-1.18 1.87-1.58-.06-.24-1.62-.47-2.47-.29s-.4 2.07.6 1.87zM69.83 54.91c-.76.27-2 1.18-1.87 1.58.06.24 1.62.47 2.47.29s.4-2.07-.6-1.87zM55.58 68c.35-.72.57-2.24.21-2.44s-1.48.82-1.95 1.55 1.16 1.76 1.74.89zM64.32 49c-.35.73-.57 2.24-.21 2.44.21.12 1.48-.82 2-1.54s-1.23-1.78-1.79-.9zM63.53 68.32c-.26-.76-1.18-2-1.58-1.87a4 4 0 0 0-.29 2.47c.2.92 2.08.4 1.87-.6zM56.25 48.68c.27.76 1.18 2 1.58 1.88a4 4 0 0 0 .29-2.47c-.2-.93-2.07-.41-1.87.59zM70.26 60.31c-.78-.15-2.31 0-2.41.42-.07.24 1.17 1.22 2 1.5s1.38-1.59.41-1.92zM49.63 56.69c.79.15 2.32 0 2.42-.41s-1.17-1.23-2-1.51-1.39 1.59-.42 1.92zM68.39 52.48c-.59.55-1.37 1.87-1.11 2.19s1.68-.2 2.39-.69-.44-2.07-1.28-1.5zM53.12 66.82c.59-.54 1.37-1.86 1.12-2.18s-1.69.19-2.4.69.43 2.07 1.28 1.49zM59 48.13c.06.8.62 2.23 1 2.22.24 0 .88-1.45.92-2.31s-1.82-.93-1.92.09zM61 69c-.06-.8-.62-2.22-1-2.22-.25 0-.88 1.45-.92 2.32s1.83.9 1.92-.1zM53.76 50c.46.66 1.67 1.6 2 1.38a4.16 4.16 0 0 0-.38-2.46c-.38-.82-2.08.18-1.62 1.08zM66 67c-.46-.66-1.67-1.6-2-1.38a4 4 0 0 0 .38 2.46c.43.82 2.1-.17 1.62-1.08zM52 51.83c.61.52 2 1.14 2.3.84s-.4-1.64-1-2.29-1.99.68-1.3 1.45zM68 65.28c-.61-.52-2-1.14-2.3-.85s.4 1.65 1 2.3 2.01-.67 1.3-1.45zM49.53 59.59c.8-.07 2.22-.64 2.21-1.05 0-.25-1.45-.87-2.32-.92s-.92 1.91.11 1.97zM70.37 57.53c-.8.06-2.22.63-2.21 1 0 .25 1.45.87 2.32.9s.91-1.85-.11-1.9zM51.78 64.61c.6-.53 1.38-1.85 1.12-2.18a4.09 4.09 0 0 0-2.4.69c-.77.54.43 2.07 1.28 1.49zM67.08 50.32c-.6.53-1.37 1.85-1.12 2.17s1.68-.19 2.4-.68-.43-2.08-1.28-1.49zM58.16 68.76c.15-.78 0-2.31-.43-2.41-.23-.07-1.22 1.17-1.49 2s1.59 1.38 1.92.41zM61.74 48.13c-.15.78 0 2.31.42 2.41.24.06 1.22-1.17 1.5-2s-1.59-1.39-1.92-.41z"/><path class="cls-4" d="M165.32 88.34v-.14c3.66-.77 10.82-2.31 10.82-10.11 0-10.87-14.25-11.85-21.34-11.85H132a1.37 1.37 0 0 0-.42.12.63.63 0 0 0-.22 1c.09.11.26.24 1 .3h1.15c5.36.37 7.37 1.46 7.37 6.24V105c0 4.74-1.92 6.06-7.86 6.29h-.99c-.56.06-.71.17-.78.28a.65.65 0 0 0 .18.91 1 1 0 0 0 .48.12h27.29c18.09 0 19.72-9.69 19.72-12.36 0-7.24-6.52-10.64-13.6-11.9zm-17.19-17.41c0-1.05.16-2 1.78-2 .82 0 2-.07 3.68-.07 5.77 0 15.57 1.34 15.28 9.68-.17 4.89-5.23 8.5-13 8.5l-7.73.07zm6.18 39.18c-4.72 0-6.18-.29-6.18-2.88V88.79c7.81 0 10.43.35 13.2 1 4.23 1.12 10.27 4.48 10.27 10.22 0 9.46-11.9 10.1-17.29 10.1zM315.81 111.66a.51.51 0 0 0-.46-.23h-.07c-3.24.09-5.24-2.13-9-6.3-4.43-4.92-12.21-12.7-13.56-14 3.4-2.4 10.32-11.79 10.32-11.79 4.09-4.1 6.06-4.08 9.51-4.37a.49.49 0 0 0 .41-.2.59.59 0 0 0-.14-.8 1.68 1.68 0 0 0-.27-.09h-15.04a1.15 1.15 0 0 0-.26.09.58.58 0 0 0-.15.8.49.49 0 0 0 .41.2h.28c2.6.11 3.63.27 3.63 1.79 0 2-12.71 17.41-17.75 15.43v-12c0-4.28.8-5 5.17-5.25h.16a.53.53 0 0 0 .42-.2.59.59 0 0 0-.16-.8 1.15 1.15 0 0 0-.26-.09h-32.1a1 1 0 0 0-.31.1.58.58 0 0 0-.14.79c.06.09.19.21.53.21h.02c3.82.3 5.41.83 5.41 7.39v21.35l-33.53-29.85H220a.74.74 0 0 0-.24.08.58.58 0 0 0-.15.79.52.52 0 0 0 .39.2H221.14c1.56.15 2.54.76 4.48 3.14v25.46c0 5.89-1.07 7-4.89 7.34h-.81a.42.42 0 0 0-.13 0c-2.49-.19-3.79-1-6.15-5l-16.43-32.7h-1.16L184 101.5c-1.1 2.54-2.89 6.75-4.22 8.2a3.67 3.67 0 0 1-2.49 1.23h-.19a.66.66 0 0 0-.15 0h-.11a.67.67 0 0 0-.44.21.58.58 0 0 0 .16.78 1.38 1.38 0 0 0 .28.1h11.37a.79.79 0 0 0 .41-.11.56.56 0 0 0 .14-.78c-.06-.1-.18-.22-.53-.22h-1c-1.29-.09-2.9-.52-2.9-2.4a6.77 6.77 0 0 1 .46-2.19l2.66-6.75h17.18l2.82 5.53a13.52 13.52 0 0 1 1.1 3.65c0 1.8-1.36 2.12-3.07 2.18h-.97a.52.52 0 0 0-.45.21.57.57 0 0 0 .14.76.64.64 0 0 0 .31.09h29a.8.8 0 0 0 .37-.1.56.56 0 0 0-.38-1h-.54c-3.76-.27-4.87-1.68-4.87-7.36V81.06h.11l35.8 31.65h1V82.33c0-6.7 2.24-6.86 5.81-7.26h.31c3.81.29 6.69.63 6.69 5.13v25.3c0 4.74-.67 5.66-5 5.9h-.15a.52.52 0 0 0-.42.22.57.57 0 0 0 .16.78.61.61 0 0 0 .26.1h16.12a.77.77 0 0 0 .4-.1.58.58 0 0 0 .16-.79.53.53 0 0 0-.46-.23c-4.49-.23-5.18-1.17-5.18-5.26V94.25s3.05-.46 4.21 0 11.91 11.57 13.34 14.1a3.87 3.87 0 0 1 .61 1.62c0 1.27-1 1.35-3.93 1.45h-.09a.5.5 0 0 0-.44.22.58.58 0 0 0 .15.79.85.85 0 0 0 .29.09h17.45a.81.81 0 0 0 .41-.1.58.58 0 0 0 .11-.76zM188.49 97.22l7.09-16.86 8.31 16.86zM197 53.49h-1.4c-2.53-.29-3.4-1.27-3.4-5.11V22.64c0-4.13 1-4.88 3.81-5.13.25 0 .52 0 .81-.05h.25c.29-.06.38-.14.44-.22a.58.58 0 0 0-.16-.78 1 1 0 0 0-.28-.1h-14.61a.79.79 0 0 0-.41.11.57.57 0 0 0-.15.78c.07.1.18.2.69.25h.81c3.13.32 3.7 1.26 3.7 5.11v25.67c0 3.83-.52 4.87-4 5.16-.51.05-.62.16-.69.25a.56.56 0 0 0 .15.78.71.71 0 0 0 .41.1H197a1.78 1.78 0 0 0 .23-.09.57.57 0 0 0 .16-.78c-.02-.08-.1-.16-.39-.21zM180.37 42.13c-.5.83-2.93 5.52-5.34 6.9a33.28 33.28 0 0 1-15.75 4.24c-11.15 0-24-7.47-24-23.34 0-10.79 5.31-15.72 8.76-18.56 3.72-3.07 9.96-4.43 14.36-4.43 10.89 0 17.27 6 19.48 13.85l.06.54c.12.73.32.91.49 1a1.12 1.12 0 0 0 1.36-.28.93.93 0 0 0 .14-.61v-.67s-.45-13.72-.72-14a1.27 1.27 0 0 0-1.83-.09c-.46 1.24-3.75-.1-4.18-.21-3-.74-7.69-2.47-15.57-2.47-15.24 0-30.11 9.06-30.11 25.84 0 18.64 15.32 25.83 29.57 25.83a38.08 38.08 0 0 0 9.68-1.21c2.26-.59 8.42-3 11.34-2.5 1.25-3 3.83-9.17 3.83-9.63a.85.85 0 0 0-1.57-.2zM240.54 15.89a1.22 1.22 0 0 0-.91 0l-.75.5h-36.82a4 4 0 0 0-.55-.36c-.2-.1-.81-.29-1.08 0-.71 1.64-1.26 9.21-1 9.84a.92.92 0 0 0 1.46.32 1.27 1.27 0 0 0 .38-.68c1.61-5.65 3.78-6.65 11.63-6.65h5.1v28.78c0 4.28-1.35 5.61-8.13 5.84h-.15c-.53 0-.66.14-.72.23a.51.51 0 0 0 .15.74 1 1 0 0 0 .44.09h22a1 1 0 0 0 .43-.09.52.52 0 0 0 .15-.76c-.06-.09-.18-.18-.59-.22-6.25-.17-8.49-1.27-8.49-5.2V18.78h5.37c7.65 0 10 .9 11.51 6.19a2.23 2.23 0 0 0 .52 1.14.91.91 0 0 0 1.52-.32c.4-.96-.8-9.38-1.47-9.9zM301.89 43.67a.58.58 0 0 0-.76-.25 1.4 1.4 0 0 0-.48.8 1.46 1.46 0 0 0-.07.19c-1.28 4.22-2.37 8-9.93 8h-21l30.74-34.63a5.53 5.53 0 0 0 .35-.66 1.4 1.4 0 0 0 0-.75h-36.56l-1 9-.07.62v.4a.67.67 0 0 0 .09.45.83.83 0 0 0 1 .26c.14 0 .29-.17.4-.69a.49.49 0 0 1 0-.14c.76-3.87 1.45-7.69 9.71-7.69h18.94L262.29 53a4 4 0 0 0-.53.91 1.06 1.06 0 0 0 0 .69h38.75l1.31-9.6.07-.58.05-.32a.8.8 0 0 0-.05-.43zM339 44.82a.72.72 0 0 0-.05-.35c-.09-.3-.61-.49-1-.42-.14 0-.32.1-.51.57a.8.8 0 0 1-.07.2c-2.54 5.83-5.43 7.57-12.65 7.57-8.6 0-8.6-.06-8.6-2.43V35.64l8.9.11c4.72.06 5.63.85 6.32 5.32.05.5.17.61.3.68a.78.78 0 0 0 .94-.15.67.67 0 0 0 .11-.41V27.86a.68.68 0 0 0-.11-.41.78.78 0 0 0-.94-.15c-.13.07-.25.19-.3.69-.63 4-1.26 5.32-6.32 5.32h-8.9v-12.8c0-2 .69-2 1.91-2h7.79c6.34 0 7.88.92 8.75 5.9v.07c.08.49.21.61.34.68a.9.9 0 0 0 1-.19.58.58 0 0 0 .11-.39l-.18-8.26h-30.63a.75.75 0 0 0-.33.1.57.57 0 0 0-.15.78c.06.1.18.21.68.25h.72c2.94.3 4.1 1 4.1 5.11v25.72c0 4-1.08 4.82-4 5.11h-.78c-.5 0-.62.15-.68.24a.58.58 0 0 0 .15.79c.11.05.19.06.26.09h31.18l2.6-9.76zM396 22.47c0-3.58 2.93-5.61 5.8-5.93 3.91-.42 9.86.58 10.88 5.28v.16c.1.49.25.6.37.66a.87.87 0 0 0 1-.26.66.66 0 0 0 .09-.42l-.64-7.22h-1.21c-.12.64-.25 1.46-1.87 1.54-2 .09-3.75-1.63-8.95-1.54S391 18 391 24.55c0 5.72 3.7 8.26 9 11.31 8.48 5 11.53 6.94 11.47 10.23-.08 4.55-4.18 7-8.8 7-7.22 0-10.48-7.07-11.76-10.18-.05-.23-.1-.45-.17-.69-.14-.49-.29-.59-.42-.63a.87.87 0 0 0-.95.32.6.6 0 0 0-.05.42v.16l1.69 12h1.27a1.79 1.79 0 0 1 1.79-1.91c1.74 0 4.56 2 9 2 8.25 0 14.34-3.86 14.24-10.45-.19-11.85-21.31-13-21.31-21.66zM258.78 53.49h-1.48c-2.52-.29-3.38-1.27-3.38-5.11V22.64c0-4.13 1-4.88 3.79-5.13.27 0 .54 0 .81-.05h.26c.29-.06.38-.14.43-.22a.56.56 0 0 0-.15-.78 1 1 0 0 0-.28-.1h-14.57a.75.75 0 0 0-.4.11.58.58 0 0 0-.16.78c.06.1.19.2.69.25h.81c3.14.32 3.71 1.26 3.71 5.11v25.67c0 3.83-.53 4.87-4 5.16-.5.05-.62.16-.68.25a.56.56 0 0 0 .15.78.67.67 0 0 0 .4.1h14.08c.06 0 .13 0 .23-.09a.55.55 0 0 0 .15-.78c-.07-.08-.19-.16-.41-.21zM390 16.57a.77.77 0 0 0-.41-.11h-13.51a.82.82 0 0 0-.31.11.56.56 0 0 0-.15.78c.06.1.19.21.53.21h.06c3.82.3 5.41.83 5.41 7.39V46.3l-33.57-29.84h-8.84a.6.6 0 0 0-.24.09.56.56 0 0 0-.15.78.49.49 0 0 0 .39.2h1.13c1.57.14 2.54.76 4.49 3.14V46.2c0 5.43-.92 6.79-4.06 7.24h-.56c-.5.05-.62.15-.68.26a.63.63 0 0 0 .15.84.88.88 0 0 0 .31.11h12.81a.74.74 0 0 0 .36-.1.59.59 0 0 0 .15-.79.56.56 0 0 0-.52-.21h-.54c-3.77-.27-4.87-1.69-4.87-7.36V23.68h.11l35.71 31.64h1V25c0-6.69 1.82-7 5.4-7.38h.06c.34 0 .46-.11.53-.21a.56.56 0 0 0-.19-.84z"/></svg>